<svg width="512" height="512" viewBox="0 0 512 512" fill="none" xmlns="http://www.w3.org/2000/svg">
<g clip-path="url(#clip0_1115_2675)">
<g clip-path="url(#clip1_1115_2675)">
<path opacity="0.01" d="M132.115 16C68.1887 16 16 69.9273 16 135.985V392.016C16 458.071 68.1887 512.001 132.115 512.001H379.888C443.814 512.001 496.003 458.074 496.003 392.016V135.985C496.003 69.9303 443.814 16 379.888 16H132.115ZM139.887 31.75H372.13C427.896 31.75 472.791 78.1393 472.791 135.765V375.748C472.791 433.373 427.899 479.762 372.13 479.762H139.887C84.1217 479.762 39.2261 433.373 39.2261 375.748V135.765C39.2261 78.1393 84.1185 31.75 139.887 31.75Z" fill="black"/>
<path opacity="0.01" d="M131.792 24C72.3225 24 24.0312 73.9754 24.0312 135.501V392.502C24.0312 454.028 72.3225 504.003 131.792 504.003H380.224C439.693 504.003 488 454.028 488 392.502V135.501C488 73.9754 439.693 24 380.224 24H131.792ZM140.023 31.75H371.994C427.696 31.75 472.534 78.1394 472.534 135.765V375.748C472.534 433.373 427.693 479.763 371.994 479.763H140.023C84.3207 479.763 39.4829 433.373 39.4829 375.748V135.765C39.4829 78.1394 84.3239 31.75 140.023 31.75Z" fill="black"/>
<path opacity="0.03" d="M130.31 32C73.8973 32 28.2578 78.5133 28.2578 135.984V392.015C28.2578 449.485 75.7297 495.999 132.143 495.999H380.072C436.485 495.999 483.706 449.485 483.706 392.015V135.984C483.706 78.5133 438.048 32 381.639 32H378.709C432.954 34.616 475.884 79.8316 475.884 135.767V375.75C475.884 433.376 430.351 479.764 373.787 479.764H138.227C81.6625 479.764 36.1291 433.376 36.1291 375.75V135.767C36.1291 79.8346 79.0623 34.6216 133.304 32H130.31Z" fill="black"/>
<path opacity="0.03" d="M32 375.754V392.004C32 445.188 79.1659 488.004 132.353 488.004H380.042C433.226 488.004 480.003 445.188 480.003 392.004V376.066C479.833 433.546 433.523 479.771 376.002 479.771H136.017C78.3907 479.771 32 433.381 32 375.754Z" fill="black"/>
<path opacity="0.05" d="M32 360V377.91C32 436.528 79.5594 483.718 132.743 483.718H379.484C432.668 483.718 480 436.525 480 377.91V360.345C479.832 423.697 433.52 474.642 376.001 474.642H136.018C78.3923 474.642 32.003 423.512 32.003 360H32Z" fill="black"/>
</g>
<path d="M376 32H136.016C78.5696 32 32 78.5695 32 136.016V376C32 433.446 78.5696 480.016 136.016 480.016H376C433.446 480.016 480.016 433.446 480.016 376V136.016C480.016 78.5695 433.446 32 376 32Z" fill="url(#paint0_linear_1115_2675)"/>
<g filter="url(#filter0_d_1115_2675)">
<path d="M276.586 285.245C268.465 279.344 220.078 244.209 220.078 244.209H289.928C293.049 234.651 311.529 177.803 311.529 177.803C311.529 177.803 330.017 234.651 333.108 244.209H370.43L311.529 63.0684L264.137 208.816H110.789L264.909 321.177C269.853 306.02 275.069 289.923 276.586 285.245Z" fill="#F58426"/>
<path d="M276.586 285.245C268.465 279.344 220.078 244.209 220.078 244.209H289.928C293.049 234.651 311.529 177.803 311.529 177.803C311.529 177.803 330.017 234.651 333.108 244.209H370.43L311.529 63.0684L264.137 208.816H110.789L264.909 321.177C269.853 306.02 275.069 289.923 276.586 285.245Z" fill="url(#paint1_linear_1115_2675)"/>
</g>
<path d="M99.8897 342.777L98.5955 344.345L97.3061 342.778L97.306 342.778C93.9509 338.706 89.0197 336.377 83.7701 336.377C74.1 336.377 66.2266 344.243 66.2266 353.926V385.754V386.254H66.7266H71.1467H71.6467V385.754V353.926C71.6467 347.233 77.0877 341.801 83.7701 341.801C90.4537 341.801 95.8818 347.234 95.8818 353.926V385.715V386.215H96.3818H100.808H101.308V385.715V353.926C101.308 347.233 106.749 341.801 113.435 341.801C120.113 341.801 125.553 347.234 125.553 353.926V385.754V386.254H126.053H130.465H130.965V385.754V353.926C130.963 344.243 123.104 336.377 113.435 336.377C108.187 336.377 103.251 338.705 99.8898 342.777C99.8898 342.777 99.8897 342.777 99.8897 342.777Z" fill="url(#paint2_linear_1115_2675)" stroke="#3E3729"/>
<path d="M173.726 345.222L175.41 346.558L143.854 370.722L143.008 368.748L143.007 368.746C141.927 366.251 141.391 363.595 141.391 360.869C141.391 349.863 150.331 340.908 161.34 340.908C165.899 340.908 170.179 342.398 173.725 345.222L173.726 345.222ZM184.731 370.752L184.732 370.752L184.275 370.559L184.274 370.559L184.732 370.752L184.732 370.752L184.732 370.752L184.732 370.752L184.733 370.749L184.736 370.741L184.751 370.707L184.805 370.578C184.852 370.467 184.919 370.309 184.999 370.118C185.159 369.738 185.373 369.229 185.586 368.717L185.777 368.26L185.322 368.065C183.811 367.418 182.776 366.978 181.249 366.337L180.79 366.144L180.595 366.602C180.378 367.113 180.164 367.623 180.004 368.005C179.925 368.196 179.858 368.355 179.812 368.466L179.758 368.595L179.744 368.629L179.741 368.637L179.741 368.638L179.74 368.639C176.596 376.049 169.384 380.832 161.336 380.832C156.796 380.832 152.325 379.253 148.79 376.371L148.789 376.37L147.141 375.035L177.455 351.797L177.458 351.795L179.552 350.213L179.556 350.21L181.064 349.046L181.259 348.896V348.887C181.34 348.823 181.446 348.741 181.569 348.645C181.871 348.41 182.276 348.098 182.686 347.783L183.084 347.477L182.777 347.08C182.435 346.639 182.094 346.201 181.838 345.874C181.71 345.71 181.604 345.574 181.529 345.479L181.442 345.368L181.419 345.339L181.414 345.332L181.414 345.332C181.413 345.331 181.413 345.331 181.413 345.33C176.559 339.072 169.248 335.488 161.338 335.488C147.34 335.488 135.969 346.872 135.969 360.869C135.969 374.866 147.34 386.254 161.338 386.254C171.568 386.254 180.742 380.17 184.731 370.752Z" fill="url(#paint3_linear_1115_2675)" stroke="#3E3729"/>
<path d="M196.034 321.177V320.677H195.534H191.125H190.625V321.177V370.749C190.625 379.3 197.583 386.254 206.126 386.254H212.687H213.187V385.754V381.338V380.838H212.687H206.126C200.57 380.838 196.034 376.308 196.034 370.749V342.653H208.339H208.839V342.153V337.731V337.231H208.339H196.034V321.177Z" fill="url(#paint4_linear_1115_2675)" stroke="#3E3729"/>
<path d="M258.432 372.367L258.432 372.368C254.831 377.671 248.941 380.838 242.691 380.838C232.16 380.838 223.6 372.276 223.6 361.742C223.6 351.221 232.16 342.653 242.691 342.653H258.724V371.939L258.432 372.367ZM264.144 337.731V337.231H263.644H242.691C229.18 337.231 218.18 348.229 218.18 361.742C218.18 375.265 229.18 386.254 242.691 386.254C247.297 386.254 251.938 384.793 256.119 382.024L258.724 380.305V385.754V386.254H259.224H263.644H264.144V385.754V337.731Z" fill="url(#paint5_linear_1115_2675)" stroke="#3E3729"/>
<path d="M316.901 372.728L317.157 372.245L316.653 372.033C316.096 371.798 315.606 371.593 315.144 371.4C314.282 371.039 313.514 370.718 312.577 370.317L312.161 370.139L311.943 370.534C308.459 376.835 301.843 380.832 294.531 380.832C283.523 380.832 274.557 371.871 274.557 360.869C274.557 349.864 283.523 340.908 294.531 340.908C300.022 340.908 305.166 343.135 308.915 347.054L309.229 347.382L309.585 347.102C310.286 346.552 310.871 346.1 311.489 345.623C311.976 345.247 312.483 344.856 313.082 344.389L313.511 344.054L313.142 343.655C308.344 338.46 301.687 335.488 294.531 335.488C280.524 335.488 269.148 346.872 269.148 360.869C269.148 374.866 280.524 386.254 294.531 386.254C303.988 386.254 312.522 380.997 316.901 372.728Z" fill="url(#paint6_linear_1115_2675)" stroke="#3E3729"/>
<path d="M327.377 361.742C327.377 372.275 335.939 380.838 346.472 380.838C352.74 380.838 358.628 377.671 362.214 372.362L327.377 361.742ZM327.377 361.742C327.377 351.221 335.939 342.653 346.472 342.653H362.503M327.377 361.742L362.503 342.653M362.503 342.653V371.933L362.215 372.361L362.503 342.653ZM367.931 337.731V337.231H367.431H346.474C332.961 337.231 321.961 348.229 321.961 361.742C321.961 375.265 332.961 386.254 346.474 386.254C351.081 386.254 355.727 384.793 359.91 382.024C359.91 382.024 359.91 382.024 359.91 382.024L362.505 380.307V385.754V386.254H363.005H367.431H367.931V385.754V337.731Z" fill="url(#paint7_linear_1115_2675)" stroke="#3E3729"/>
<path d="M391.144 321.177V320.677H390.644H388.429C380.057 320.677 373.269 327.234 372.957 335.614L372.93 336.153L372.93 336.166V336.178V385.754V386.254H373.43H377.85H378.35V385.754V342.651H390.502H391.002V342.151V337.729V337.229H390.502H378.279L378.418 335.425L378.418 335.424C378.813 330.196 383.215 326.095 388.429 326.095H390.644H391.144V325.595V321.177Z" fill="url(#paint8_linear_1115_2675)" stroke="#3E3729"/>
<path d="M445.948 368.269L445.758 368.724C445.546 369.235 445.332 369.744 445.17 370.125C445.09 370.316 445.023 370.475 444.975 370.586L444.921 370.715L444.906 370.749L444.902 370.758L444.901 370.76L444.901 370.76L445.948 368.269ZM445.948 368.269L445.496 368.073M445.948 368.269L445.496 368.073M445.496 368.073C444.065 367.454 443.062 367.031 441.668 366.444L441.423 366.341L440.965 366.147M445.496 368.073L440.965 366.147M440.965 366.147L440.769 366.605M440.965 366.147L440.769 366.605M440.769 366.605C440.552 367.115 440.338 367.625 440.178 368.007C440.098 368.199 440.032 368.358 439.986 368.47L439.932 368.599L439.918 368.634L439.915 368.641M440.769 366.605L439.915 368.641M408.961 376.374L408.962 376.375C412.497 379.251 416.97 380.832 421.508 380.832C429.559 380.832 436.769 376.044 439.913 368.645C439.913 368.645 439.914 368.644 439.914 368.643M408.961 376.374L439.914 368.643M408.961 376.374L407.315 375.039L437.632 351.804L437.634 351.802L439.725 350.218L439.728 350.216M408.961 376.374L439.728 350.216M439.914 368.643C439.914 368.642 439.915 368.642 439.915 368.641M439.914 368.643L439.914 368.643L439.915 368.641M439.728 350.216L441.24 349.05L441.435 348.9M439.728 350.216L441.435 348.9M441.435 348.9V348.892M441.435 348.9V348.892M441.435 348.892C441.516 348.827 441.622 348.745 441.745 348.649C442.046 348.414 442.449 348.102 442.858 347.792L443.258 347.488L442.952 347.089C442.61 346.645 442.269 346.206 442.014 345.88C441.887 345.716 441.781 345.58 441.706 345.486L441.62 345.376L441.597 345.347L441.591 345.339L441.591 345.339L441.59 345.338L441.435 348.892ZM433.902 345.222L435.585 346.558L404.027 370.719L403.177 368.743L403.177 368.742C402.101 366.255 401.565 363.599 401.565 360.869C401.565 349.863 410.503 340.908 421.512 340.908C426.073 340.908 430.352 342.404 433.902 345.222L433.902 345.222Z" fill="url(#paint9_linear_1115_2675)" stroke="#3E3729"/>
</g>
<defs>
<filter id="filter0_d_1115_2675" x="102.789" y="59.0684" width="279.641" height="278.109" filterUnits="userSpaceOnUse" color-interpolation-filters="sRGB">
<feFlood flood-opacity="0" result="BackgroundImageFix"/>
<feColorMatrix in="SourceAlpha" type="matrix" values="0 0 0 0 0 0 0 0 0 0 0 0 0 0 0 0 0 0 127 0" result="hardAlpha"/>
<feOffset dx="2" dy="6"/>
<feGaussianBlur stdDeviation="5"/>
<feComposite in2="hardAlpha" operator="out"/>
<feColorMatrix type="matrix" values="0 0 0 0 0 0 0 0 0 0 0 0 0 0 0 0 0 0 0.25 0"/>
<feBlend mode="normal" in2="BackgroundImageFix" result="effect1_dropShadow_1115_2675"/>
<feBlend mode="normal" in="SourceGraphic" in2="effect1_dropShadow_1115_2675" result="shape"/>
</filter>
<linearGradient id="paint0_linear_1115_2675" x1="264.693" y1="468.085" x2="264.693" y2="53.1637" gradientUnits="userSpaceOnUse">
<stop stop-color="#F8F8F8"/>
<stop offset="1" stop-color="#FDFDFD"/>
</linearGradient>
<linearGradient id="paint1_linear_1115_2675" x1="240.609" y1="63.0684" x2="240.609" y2="321.177" gradientUnits="userSpaceOnUse">
<stop stop-color="#F58426"/>
<stop offset="1" stop-color="#BB5E10"/>
</linearGradient>
<linearGradient id="paint2_linear_1115_2675" x1="98.5269" y1="280.064" x2="98.5269" y2="388.795" gradientUnits="userSpaceOnUse">
<stop stop-color="#837963"/>
<stop offset="1" stop-color="#140F06"/>
</linearGradient>
<linearGradient id="paint3_linear_1115_2675" x1="160.69" y1="279.266" x2="160.69" y2="388.156" gradientUnits="userSpaceOnUse">
<stop stop-color="#837963"/>
<stop offset="1" stop-color="#140F06"/>
</linearGradient>
<linearGradient id="paint4_linear_1115_2675" x1="202.054" y1="277.841" x2="202.054" y2="388.934" gradientUnits="userSpaceOnUse">
<stop stop-color="#837963"/>
<stop offset="1" stop-color="#140F06"/>
</linearGradient>
<linearGradient id="paint5_linear_1115_2675" x1="241.203" y1="280.43" x2="241.203" y2="389.003" gradientUnits="userSpaceOnUse">
<stop stop-color="#837963"/>
<stop offset="1" stop-color="#140F06"/>
</linearGradient>
<linearGradient id="paint6_linear_1115_2675" x1="292.983" y1="279.266" x2="292.983" y2="388.156" gradientUnits="userSpaceOnUse">
<stop stop-color="#837963"/>
<stop offset="1" stop-color="#140F06"/>
</linearGradient>
<linearGradient id="paint7_linear_1115_2675" x1="345.087" y1="280.43" x2="345.087" y2="389.003" gradientUnits="userSpaceOnUse">
<stop stop-color="#837963"/>
<stop offset="1" stop-color="#140F06"/>
</linearGradient>
<linearGradient id="paint8_linear_1115_2675" x1="381.858" y1="277.841" x2="381.858" y2="388.934" gradientUnits="userSpaceOnUse">
<stop stop-color="#837963"/>
<stop offset="1" stop-color="#140F06"/>
</linearGradient>
<linearGradient id="paint9_linear_1115_2675" x1="420.908" y1="279.254" x2="420.908" y2="388.125" gradientUnits="userSpaceOnUse">
<stop stop-color="#837963"/>
<stop offset="1" stop-color="#140F06"/>
</linearGradient>
<clipPath id="clip0_1115_2675">
<rect width="512" height="512" fill="white"/>
</clipPath>
<clipPath id="clip1_1115_2675">
<rect width="512" height="512" fill="white"/>
</clipPath>
</defs>
</svg>
