<svg width="512" height="512" viewBox="0 0 512 512" fill="none" xmlns="http://www.w3.org/2000/svg">
<g clip-path="url(#clip0_1094_19861)">
<g clip-path="url(#clip1_1094_19861)">
<path opacity="0.01" d="M132.115 16C68.1887 16 16 69.9273 16 135.985V392.016C16 458.071 68.1887 512.001 132.115 512.001H379.888C443.814 512.001 496.003 458.074 496.003 392.016V135.985C496.003 69.9303 443.814 16 379.888 16H132.115ZM139.887 31.75H372.13C427.896 31.75 472.791 78.1393 472.791 135.765V375.748C472.791 433.373 427.899 479.762 372.13 479.762H139.887C84.1217 479.762 39.2261 433.373 39.2261 375.748V135.765C39.2261 78.1393 84.1185 31.75 139.887 31.75Z" fill="black"/>
<path opacity="0.01" d="M131.792 24C72.3225 24 24.0312 73.9754 24.0312 135.501V392.502C24.0312 454.028 72.3225 504.003 131.792 504.003H380.224C439.693 504.003 488 454.028 488 392.502V135.501C488 73.9754 439.693 24 380.224 24H131.792ZM140.023 31.75H371.994C427.696 31.75 472.534 78.1394 472.534 135.765V375.748C472.534 433.373 427.693 479.763 371.994 479.763H140.023C84.3207 479.763 39.4829 433.373 39.4829 375.748V135.765C39.4829 78.1394 84.3239 31.75 140.023 31.75Z" fill="black"/>
<path opacity="0.03" d="M130.31 32C73.8973 32 28.2578 78.5133 28.2578 135.984V392.015C28.2578 449.485 75.7297 495.999 132.143 495.999H380.072C436.485 495.999 483.706 449.485 483.706 392.015V135.984C483.706 78.5133 438.048 32 381.639 32H378.709C432.954 34.616 475.884 79.8316 475.884 135.767V375.75C475.884 433.376 430.351 479.764 373.787 479.764H138.227C81.6625 479.764 36.1291 433.376 36.1291 375.75V135.767C36.1291 79.8346 79.0623 34.6216 133.304 32H130.31Z" fill="black"/>
<path opacity="0.03" d="M32 375.754V392.004C32 445.188 79.1659 488.004 132.353 488.004H380.042C433.226 488.004 480.003 445.188 480.003 392.004V376.066C479.833 433.546 433.523 479.771 376.002 479.771H136.017C78.3907 479.771 32 433.381 32 375.754Z" fill="black"/>
<path opacity="0.05" d="M32 360V377.91C32 436.528 79.5594 483.718 132.743 483.718H379.484C432.668 483.718 480 436.525 480 377.91V360.345C479.832 423.697 433.52 474.642 376.001 474.642H136.018C78.3923 474.642 32.003 423.512 32.003 360H32Z" fill="black"/>
</g>
<path d="M376 32H136.016C78.5696 32 32 78.5695 32 136.016V376C32 433.446 78.5696 480.016 136.016 480.016H376C433.446 480.016 480.016 433.446 480.016 376V136.016C480.016 78.5695 433.446 32 376 32Z" fill="url(#paint0_linear_1094_19861)"/>
<mask id="mask0_1094_19861" style="mask-type:luminance" maskUnits="userSpaceOnUse" x="41" y="196" width="430" height="136">
<path d="M470.064 331.562H41.8906V196.437H470.064V331.562Z" fill="#FEFDFC"/>
</mask>
<g mask="url(#mask0_1094_19861)">
<path fill-rule="evenodd" clip-rule="evenodd" d="M279.583 244.216C277.711 252.76 273.788 262.54 271.589 272.015C283.693 272.186 296.46 269.72 308.905 268.971C310.59 266.719 311.417 263.613 312.337 260.593C314.832 264.126 316.589 270.737 314.242 275.822C295.34 275.561 281.753 291.037 263.212 291.056C254.908 291.066 247.85 286.287 251.783 276.965C257.336 263.811 271.104 254.625 279.583 244.216Z" fill="#FEFDFC"/>
</g>
<mask id="mask1_1094_19861" style="mask-type:luminance" maskUnits="userSpaceOnUse" x="41" y="196" width="430" height="136">
<path d="M470.064 331.562H41.8906V196.437H470.064V331.562Z" fill="#FEFDFC"/>
</mask>
<g mask="url(#mask1_1094_19861)">
<path fill-rule="evenodd" clip-rule="evenodd" d="M337.474 214.894C332.639 215.478 329.208 220.762 326.05 222.51C326.279 222.488 326.496 222.451 326.421 222.127C327.003 219.527 328.106 217.457 328.329 214.514C302.986 205.588 278.321 218.639 260.165 228.601C245.647 236.566 232.694 245.923 223.604 255.258C226.89 249.658 230.377 244.118 234.269 238.886C238.213 233.571 242.608 228.768 246.079 224.035C238.487 222.047 230.876 219.949 223.22 218.319C212.337 216.004 197.201 212.165 188.186 217.177C185.577 218.625 183.444 222.19 180.951 222.51C178.889 222.779 175.492 221.271 172.951 220.988C163.645 219.955 155.084 220.817 146.675 222.51C138.799 224.088 122.144 226.889 120.012 234.312C118.644 239.078 121.691 243.698 121.157 248.41C120.635 253.049 116.182 259.18 113.921 262.88C111.152 267.414 108.338 271.432 103.635 273.539C100.784 259.352 103.887 246.734 106.305 234.699C107.797 227.285 110.803 219.695 108.212 212.227C100.952 211.219 94.8345 216.966 87.644 219.841C74.1362 225.247 59.0895 230.172 57.1796 245.739C56.1029 254.505 59.3976 260.082 61.7501 266.306C66.7885 279.681 73.0191 291.004 80.413 301.343C78.3982 305.048 73.6501 306.012 73.1709 311.237C75.3207 314.281 79.7963 314.679 84.2182 314.668C96.998 314.64 107.475 308.211 116.967 302.861C137.633 291.237 151.52 273.333 166.097 256.403C168.658 253.424 170.767 249.838 174.099 248.027C177.377 263.07 171.004 271.112 166.475 283.439C164.73 288.189 159.221 303.051 161.906 310.09C164.847 317.836 189.917 318.175 196.564 313.151C199.913 310.62 201.245 304.899 203.044 301.343C205.337 296.771 207.324 292.819 209.134 288.777C209.235 305.46 221.628 310.358 235.028 313.909C263.509 321.44 292.228 307.988 307.764 298.683C305.821 311.043 310.623 312.282 320.335 314.297C345.449 319.48 370.741 313.497 391.168 308.576C409.897 304.065 424.957 300.881 427.734 282.296C424.733 279.704 417.242 280.026 412.117 280.779C397.016 282.987 382.391 290.626 362.229 289.154C358.552 288.886 350.606 287.601 350.034 285.351C349.149 281.834 355.442 279.374 360.711 278.495C375.823 275.936 397.665 278.518 409.829 273.917C415.674 271.712 422.721 265.349 422.011 258.304C421.55 253.548 415.338 251.059 409.446 250.696C392.781 249.654 380.87 259.381 363.378 256.025C365.564 253.259 365.958 248.71 368.703 246.503C381.491 246.235 393.921 248.778 406.025 248.027C422.856 246.973 432.343 239.886 440.302 230.508C441.154 229.498 443.289 228.411 442.587 226.703C413.356 222.257 373.511 210.478 337.474 214.894ZM469.998 216.418C470.46 218.257 468.409 220.021 467.34 221.371C458.38 232.633 448.438 245.952 436.497 254.501C437.36 258.983 436.901 264.927 435.343 268.206C438.473 272.203 441.789 275.988 443.724 281.16C441.181 294.669 435.269 305.157 425.83 312.008C416.611 318.688 404.151 321.32 390.024 324.574C362.704 330.871 317.749 337.083 297.481 320.761C275.535 333.635 231.18 335.337 210.654 320C196.06 338.465 138.5 336.848 147.061 300.2C136.39 308.279 120.606 319.425 105.545 325.715C88.0832 333.002 55.0097 332.185 58.318 307.436C58.7151 304.488 59.9597 302.822 61.3642 300.2C56.2577 291.283 53.0288 285.099 49.9405 277.346C46.9797 269.913 42.4641 261.458 41.9411 251.073C40.8369 228.992 58.0447 214.991 75.0808 208.42C83.779 205.057 90.8436 200.204 99.4533 197.757C112.322 194.092 123.357 201.171 124.203 212.992C139.166 208.551 157.386 203.649 177.144 206.515C192.876 194.284 223.598 201.843 243.792 207.654C248.356 208.97 254.502 212.373 257.88 212.227C260.745 212.111 265.918 208.226 268.918 206.896C283.087 200.615 301.608 193.929 321.859 197.377C325.691 198.026 329.202 200.056 333.279 200.424C336.053 200.672 339.437 199.804 342.424 199.665C389.743 197.355 429.142 210.055 469.998 216.418Z" fill="#FEFDFC"/>
</g>
</g>
<defs>
<linearGradient id="paint0_linear_1094_19861" x1="264.693" y1="468.085" x2="264.693" y2="53.1637" gradientUnits="userSpaceOnUse">
<stop stop-color="#050504"/>
<stop offset="1" stop-color="#26251F"/>
</linearGradient>
<clipPath id="clip0_1094_19861">
<rect width="512" height="512" fill="white"/>
</clipPath>
<clipPath id="clip1_1094_19861">
<rect width="512" height="512" fill="white"/>
</clipPath>
</defs>
</svg>
